<svg xmlns="http://www.w3.org/2000/svg" xmlns:xlink="http://www.w3.org/1999/xlink" width="80" zoomAndPan="magnify" viewBox="0 0 60 60" height="80" preserveAspectRatio="xMidYMid meet" version="1.0"><defs><clipPath id="bba806d320"><path d="M 0.75 18.191406 L 59.25 18.191406 L 59.25 38 L 0.75 38 Z M 0.75 18.191406 " clip-rule="nonzero"/></clipPath><clipPath id="86f9c7fc3d"><path d="M 8 31 L 19 31 L 19 41.441406 L 8 41.441406 Z M 8 31 " clip-rule="nonzero"/></clipPath><clipPath id="b4f0b4cfab"><path d="M 42 31 L 53 31 L 53 41.441406 L 42 41.441406 Z M 42 31 " clip-rule="nonzero"/></clipPath></defs><g clip-path="url(#bba806d320)"><path fill="#000000" d="M 6.683594 18.242188 C 6.351562 18.359375 6.1875 18.671875 6.269531 19.027344 C 6.3125 19.222656 6.566406 19.484375 6.753906 19.523438 C 7.148438 19.609375 7.164062 19.523438 6.554688 20.617188 C 6.242188 21.164062 5.671875 22.203125 5.277344 22.917969 L 4.558594 24.21875 L 3.207031 24.246094 C 1.699219 24.277344 1.652344 24.28125 1.246094 24.648438 C 1.117188 24.765625 0.960938 24.980469 0.894531 25.128906 L 0.769531 25.394531 L 0.769531 31.527344 L 0.902344 31.808594 C 1.074219 32.167969 1.3125 32.402344 1.675781 32.570312 C 1.929688 32.6875 2.039062 32.703125 2.667969 32.71875 L 3.378906 32.738281 L 3.414062 33.179688 C 3.476562 34.011719 3.585938 34.695312 3.699219 34.980469 C 3.832031 35.324219 4.152344 35.707031 4.433594 35.851562 C 4.597656 35.933594 7.550781 36.96875 7.625 36.96875 C 7.636719 36.96875 7.644531 36.753906 7.644531 36.496094 C 7.644531 33.117188 10.5 30.277344 13.894531 30.277344 C 16.734375 30.277344 19.261719 32.203125 19.972656 34.910156 C 20.117188 35.445312 20.21875 36.335938 20.195312 36.789062 L 20.179688 37.097656 L 30.480469 37.113281 C 36.148438 37.121094 40.925781 37.113281 41.097656 37.097656 L 41.414062 37.066406 L 41.445312 36.339844 C 41.480469 35.328125 41.632812 34.699219 42.046875 33.820312 C 42.59375 32.675781 43.628906 31.605469 44.804688 30.976562 C 45.238281 30.742188 46.105469 30.453125 46.691406 30.351562 C 49.335938 29.902344 52.058594 31.289062 53.304688 33.726562 C 53.730469 34.550781 53.933594 35.363281 53.972656 36.386719 L 54.003906 37.054688 L 54.347656 37.09375 C 54.898438 37.144531 56.683594 37.128906 57.050781 37.066406 C 57.996094 36.917969 58.742188 36.273438 59.085938 35.3125 C 59.226562 34.90625 59.230469 34.890625 59.230469 33.671875 C 59.230469 32.320312 59.207031 32.191406 58.886719 31.902344 C 58.738281 31.761719 58.363281 31.605469 58.1875 31.605469 C 58.070312 31.605469 58.023438 31.507812 57.9375 31.132812 L 57.875 30.84375 L 56.722656 30.828125 L 55.574219 30.8125 L 54.28125 30.078125 C 53.332031 29.535156 52.960938 29.292969 52.894531 29.183594 C 52.753906 28.960938 52.765625 28.589844 52.910156 28.410156 C 53.132812 28.128906 53.175781 28.125 55.054688 28.28125 C 55.996094 28.363281 56.878906 28.441406 57.015625 28.457031 L 57.265625 28.480469 L 57.171875 28.328125 C 57.117188 28.242188 56.9375 28.03125 56.765625 27.863281 C 56.179688 27.285156 55.300781 26.96875 53.394531 26.648438 C 50.941406 26.234375 48.507812 25.960938 44.9375 25.703125 C 43.78125 25.621094 43.148438 25.554688 43.089844 25.511719 C 43.039062 25.476562 42.601562 25.125 42.125 24.730469 C 35.011719 18.929688 35.109375 19.007812 34.347656 18.804688 C 33.910156 18.691406 32.71875 18.636719 29.832031 18.605469 C 28.460938 18.585938 26.816406 18.5625 26.171875 18.546875 C 25.527344 18.53125 23.640625 18.496094 21.96875 18.472656 C 14.296875 18.34375 12.742188 18.320312 10.214844 18.265625 C 8.730469 18.238281 7.375 18.207031 7.203125 18.195312 C 7.015625 18.179688 6.808594 18.199219 6.683594 18.242188 Z M 13.238281 19.75 C 14.480469 19.773438 15.503906 19.804688 15.511719 19.816406 C 15.542969 19.847656 14.3125 25.363281 14.265625 25.410156 C 14.257812 25.417969 13.71875 25.402344 13.0625 25.375 C 12.410156 25.34375 11.320312 25.308594 10.640625 25.289062 L 9.410156 25.253906 L 8.832031 24.597656 C 8.105469 23.777344 8.097656 23.761719 8.089844 23.511719 C 8.085938 23.285156 8.511719 22.351562 9.347656 20.746094 C 9.742188 19.984375 9.746094 19.980469 10.027344 19.835938 C 10.355469 19.675781 10.074219 19.683594 13.238281 19.75 Z M 22.015625 19.902344 C 23.796875 19.929688 25.265625 19.957031 25.273438 19.96875 C 25.28125 19.980469 25.367188 20.582031 25.464844 21.3125 C 25.566406 22.039062 25.742188 23.355469 25.859375 24.234375 C 25.980469 25.113281 26.070312 25.84375 26.058594 25.855469 C 26.039062 25.875 21.726562 25.726562 19.453125 25.628906 C 18.796875 25.601562 17.84375 25.558594 17.335938 25.542969 L 16.410156 25.507812 L 16.441406 25.375 C 16.457031 25.304688 16.617188 24.046875 16.804688 22.585938 C 16.992188 21.125 17.152344 19.902344 17.164062 19.871094 C 17.179688 19.835938 17.4375 19.820312 17.984375 19.835938 C 18.417969 19.847656 20.234375 19.875 22.015625 19.902344 Z M 31.335938 20.054688 C 33.777344 20.113281 34.019531 20.136719 34.457031 20.386719 C 34.667969 20.511719 36.46875 21.945312 38.558594 23.660156 L 39.5625 24.476562 L 39.5625 26.40625 L 38.929688 26.375 C 38.574219 26.355469 37.308594 26.304688 36.109375 26.265625 C 30.117188 26.042969 28.597656 25.988281 28.574219 25.96875 C 28.566406 25.953125 28.371094 25.230469 28.144531 24.367188 C 27.921875 23.5 27.574219 22.160156 27.371094 21.394531 L 27.011719 20.003906 L 28.03125 20.003906 C 28.589844 20.003906 30.082031 20.03125 31.335938 20.054688 Z M 7.105469 26.007812 C 7.296875 26.039062 7.527344 26.265625 7.589844 26.480469 C 7.644531 26.667969 7.542969 26.996094 7.386719 27.117188 C 7.328125 27.164062 7.148438 27.230469 6.980469 27.253906 C 6.453125 27.359375 6.425781 27.367188 6.410156 27.582031 C 6.390625 27.828125 6.519531 28.042969 6.855469 28.324219 C 7.117188 28.539062 7.28125 28.796875 7.28125 29 C 7.28125 29.1875 7.125 29.453125 6.945312 29.558594 C 6.789062 29.65625 6.691406 29.664062 5.445312 29.664062 L 4.117188 29.664062 L 4.117188 29.542969 C 4.117188 29.253906 4.230469 26.003906 4.242188 25.957031 C 4.257812 25.90625 6.757812 25.953125 7.105469 26.007812 Z M 19.898438 27.464844 C 20.109375 27.578125 20.214844 27.964844 20.09375 28.195312 C 19.945312 28.488281 19.945312 28.488281 18.230469 28.488281 C 16.808594 28.488281 16.640625 28.476562 16.539062 28.394531 C 16.265625 28.175781 16.230469 27.792969 16.460938 27.5625 L 16.613281 27.414062 L 18.207031 27.414062 C 19.199219 27.414062 19.835938 27.433594 19.898438 27.464844 Z M 32.644531 28.066406 C 33.007812 28.261719 33.019531 28.808594 32.660156 29.011719 C 32.535156 29.089844 32.324219 29.101562 31.015625 29.101562 C 29.644531 29.101562 29.503906 29.089844 29.359375 29.003906 C 29.121094 28.859375 29.042969 28.628906 29.136719 28.363281 C 29.265625 27.992188 29.332031 27.980469 31.046875 27.992188 C 32.089844 28 32.566406 28.027344 32.644531 28.066406 Z M 19.957031 29.464844 C 20.558594 29.652344 21.175781 29.996094 21.605469 30.367188 C 21.78125 30.519531 22.195312 30.957031 22.53125 31.339844 C 22.863281 31.722656 23.308594 32.167969 23.515625 32.328125 C 23.945312 32.660156 24.589844 32.988281 25.058594 33.105469 C 25.390625 33.1875 27.480469 33.40625 34.113281 34.058594 C 39.109375 34.542969 40.765625 34.714844 40.808594 34.757812 C 40.824219 34.773438 40.449219 34.765625 39.976562 34.75 C 39.503906 34.738281 36.273438 34.695312 32.789062 34.664062 C 29.308594 34.640625 26.09375 34.59375 25.652344 34.566406 C 24.539062 34.5 23.988281 34.347656 23.292969 33.902344 C 22.746094 33.550781 22.296875 33.074219 21.777344 32.300781 C 21.53125 31.929688 21.226562 31.472656 21.09375 31.277344 C 20.558594 30.484375 19.699219 29.738281 18.882812 29.355469 C 18.695312 29.269531 18.542969 29.191406 18.542969 29.183594 C 18.542969 29.132812 19.53125 29.324219 19.957031 29.464844 Z M 19.957031 29.464844 " fill-opacity="1" fill-rule="nonzero"/></g><g clip-path="url(#86f9c7fc3d)"><path fill="#000000" d="M 13.457031 31.480469 C 12.664062 31.597656 12.210938 31.730469 11.640625 32.011719 C 9.472656 33.085938 8.347656 35.65625 9.058594 37.933594 C 9.320312 38.792969 9.921875 39.671875 10.648438 40.269531 C 11.269531 40.78125 11.925781 41.101562 12.773438 41.316406 C 13.40625 41.480469 14.433594 41.480469 15.082031 41.324219 C 16.871094 40.882812 18.257812 39.585938 18.78125 37.855469 C 18.949219 37.296875 19.011719 36.269531 18.90625 35.652344 C 18.757812 34.710938 18.277344 33.769531 17.589844 33.050781 C 16.972656 32.40625 16.300781 31.976562 15.488281 31.707031 C 14.917969 31.515625 13.945312 31.410156 13.457031 31.480469 Z M 13.457031 31.480469 " fill-opacity="1" fill-rule="nonzero"/></g><g clip-path="url(#b4f0b4cfab)"><path fill="#000000" d="M 47.015625 31.507812 C 44.945312 31.804688 43.335938 33.234375 42.769531 35.273438 C 42.609375 35.851562 42.609375 37.132812 42.769531 37.699219 C 43.070312 38.773438 43.652344 39.652344 44.535156 40.347656 C 46.339844 41.777344 48.933594 41.808594 50.761719 40.429688 C 51.109375 40.164062 51.675781 39.582031 51.898438 39.265625 C 52.882812 37.847656 53.039062 35.953125 52.304688 34.382812 C 51.832031 33.367188 50.867188 32.40625 49.867188 31.941406 C 49.011719 31.542969 47.917969 31.378906 47.015625 31.507812 Z M 47.015625 31.507812 " fill-opacity="1" fill-rule="nonzero"/></g></svg>