<svg xmlns="http://www.w3.org/2000/svg" xmlns:xlink="http://www.w3.org/1999/xlink" width="80" zoomAndPan="magnify" viewBox="0 0 60 60" height="80" preserveAspectRatio="xMidYMid meet" version="1.0"><defs><clipPath id="fa138d0485"><path d="M 0.75 19.8125 L 59.25 19.8125 L 59.25 39 L 0.75 39 Z M 0.75 19.8125 " clip-rule="nonzero"/></clipPath><clipPath id="b74bd885bf"><path d="M 8 32 L 17 32 L 17 40.0625 L 8 40.0625 Z M 8 32 " clip-rule="nonzero"/></clipPath><clipPath id="96bce15be7"><path d="M 43 32 L 52 32 L 52 40.0625 L 43 40.0625 Z M 43 32 " clip-rule="nonzero"/></clipPath></defs><g clip-path="url(#fa138d0485)"><path fill="#000000" d="M 24.242188 19.832031 C 21.535156 19.980469 20.105469 20.101562 18.378906 20.34375 C 16.910156 20.546875 16.402344 20.675781 15.746094 21.035156 C 15.449219 21.1875 14.628906 21.570312 13.921875 21.871094 C 9.636719 23.71875 7.207031 24.730469 6.792969 24.84375 C 6.304688 24.972656 4.921875 25.160156 3.117188 25.332031 C 2.515625 25.386719 1.96875 25.457031 1.914062 25.492188 C 1.6875 25.613281 1.660156 25.773438 1.707031 26.730469 L 1.753906 27.652344 L 3.699219 27.671875 C 5.417969 27.691406 5.664062 27.703125 5.757812 27.800781 C 5.828125 27.871094 5.855469 27.960938 5.824219 28.066406 C 5.765625 28.292969 4.59375 29.449219 4.203125 29.652344 C 3.796875 29.871094 3.25 29.960938 2.273438 29.960938 L 1.5 29.960938 L 1.390625 30.445312 C 1.332031 30.714844 1.167969 31.195312 1.019531 31.507812 L 0.75 32.089844 L 0.789062 33.023438 C 0.804688 33.535156 0.871094 34.1875 0.929688 34.46875 C 1.132812 35.441406 1.636719 36.398438 2.046875 36.605469 C 2.742188 36.949219 7.636719 38.367188 7.753906 38.261719 C 7.773438 38.242188 7.726562 38.085938 7.664062 37.914062 C 7.40625 37.261719 7.308594 36.648438 7.347656 35.824219 C 7.378906 34.929688 7.488281 34.488281 7.84375 33.757812 C 8.351562 32.710938 9.148438 31.910156 10.191406 31.398438 C 11.066406 30.976562 11.445312 30.894531 12.539062 30.886719 C 13.339844 30.886719 13.539062 30.90625 13.953125 31.035156 C 16.003906 31.675781 17.394531 33.296875 17.6875 35.414062 C 17.804688 36.257812 17.664062 37.207031 17.265625 38.222656 C 17.21875 38.332031 17.855469 38.335938 30.03125 38.335938 C 42.207031 38.335938 42.84375 38.332031 42.796875 38.222656 C 42.148438 36.628906 42.179688 35.140625 42.898438 33.699219 C 43.402344 32.691406 44.207031 31.898438 45.242188 31.394531 C 46.011719 31.015625 46.445312 30.914062 47.363281 30.875 C 48 30.847656 48.230469 30.867188 48.707031 30.976562 C 50.636719 31.4375 52.117188 32.875 52.605469 34.78125 C 52.847656 35.726562 52.757812 37.046875 52.386719 37.960938 L 52.226562 38.351562 L 53.171875 38.3125 C 55.613281 38.203125 58.375 37.851562 58.753906 37.601562 C 58.941406 37.480469 59.144531 37.089844 59.203125 36.75 C 59.242188 36.507812 59.230469 36.488281 59.042969 36.386719 C 58.613281 36.167969 58.585938 36.105469 58.585938 35.339844 C 58.585938 34.5625 58.542969 34.667969 59.09375 34.25 C 59.242188 34.140625 59.25 34.105469 59.25 33.375 C 59.25 32.960938 59.214844 32.441406 59.171875 32.230469 C 58.84375 30.714844 57.777344 29.542969 55.847656 28.597656 C 53.667969 27.523438 50.628906 26.8125 45.789062 26.25 C 43.828125 26.023438 44.277344 26.199219 42.121094 24.78125 C 36.808594 21.269531 34.421875 20.324219 29.871094 19.921875 C 29.105469 19.851562 25.046875 19.785156 24.242188 19.832031 Z M 29.195312 21.527344 C 33.046875 21.828125 36.003906 22.863281 39.324219 25.054688 C 40.160156 25.613281 41.734375 26.761719 41.734375 26.820312 C 41.734375 26.867188 40.695312 26.851562 34.46875 26.761719 C 30.183594 26.699219 27.125 26.636719 27.085938 26.601562 C 27.066406 26.585938 26.601562 24.914062 26.070312 22.925781 C 25.875 22.203125 25.703125 21.558594 25.675781 21.496094 C 25.644531 21.371094 25.683594 21.371094 27.015625 21.417969 C 27.773438 21.441406 28.75 21.488281 29.195312 21.527344 Z M 23.984375 22.011719 C 24.03125 22.324219 24.203125 23.464844 24.371094 24.558594 C 24.539062 25.644531 24.667969 26.546875 24.660156 26.550781 C 24.640625 26.585938 18.820312 26.445312 17.503906 26.378906 C 15.394531 26.277344 14.738281 26.164062 13.792969 25.707031 C 13.476562 25.554688 13.070312 25.300781 12.890625 25.144531 L 12.574219 24.863281 L 12.859375 24.683594 C 13.25 24.4375 15.238281 23.457031 16.101562 23.085938 C 18.488281 22.058594 20.871094 21.53125 23.445312 21.46875 L 23.90625 21.457031 Z M 53.523438 29.160156 C 54.65625 29.359375 55.710938 29.730469 56.542969 30.214844 C 57.234375 30.632812 58.195312 31.589844 58.050781 31.730469 C 58 31.777344 55.015625 31.621094 54.65625 31.558594 C 54.195312 31.46875 53.847656 31.269531 53.351562 30.796875 C 52.6875 30.164062 52.210938 29.410156 52.308594 29.160156 C 52.355469 29.035156 52.792969 29.035156 53.523438 29.160156 Z M 53.523438 29.160156 " fill-opacity="1" fill-rule="nonzero"/></g><g clip-path="url(#b74bd885bf)"><path fill="#000000" d="M 11.507812 32.109375 C 10.101562 32.472656 8.917969 33.675781 8.589844 35.074219 C 8.460938 35.605469 8.460938 36.464844 8.582031 36.988281 C 9.082031 39.097656 11.226562 40.421875 13.40625 39.96875 C 14.828125 39.671875 16.0625 38.464844 16.433594 36.996094 C 16.808594 35.550781 16.261719 33.878906 15.089844 32.910156 C 14.703125 32.582031 13.875 32.179688 13.386719 32.078125 C 12.917969 31.980469 11.933594 31.992188 11.507812 32.109375 Z M 11.507812 32.109375 " fill-opacity="1" fill-rule="nonzero"/></g><g clip-path="url(#96bce15be7)"><path fill="#000000" d="M 46.429688 32.160156 C 45.261719 32.511719 44.449219 33.171875 43.9375 34.210938 C 43.640625 34.792969 43.515625 35.34375 43.515625 36.035156 C 43.523438 37.191406 43.878906 38.042969 44.726562 38.886719 C 45.589844 39.75 46.546875 40.113281 47.78125 40.039062 C 48.488281 40 48.828125 39.902344 49.472656 39.570312 C 50.40625 39.085938 51.234375 38.011719 51.480469 36.988281 C 51.703125 36.035156 51.550781 34.898438 51.082031 34.054688 C 50.777344 33.515625 49.992188 32.734375 49.472656 32.46875 C 48.578125 32 47.371094 31.878906 46.429688 32.160156 Z M 46.429688 32.160156 " fill-opacity="1" fill-rule="nonzero"/></g></svg>