<svg xmlns="http://www.w3.org/2000/svg" xmlns:xlink="http://www.w3.org/1999/xlink" width="80" zoomAndPan="magnify" viewBox="0 0 60 60" height="80" preserveAspectRatio="xMidYMid meet" version="1.0"><defs><clipPath id="69427a114a"><path d="M 0.75 20.8125 L 59.25 20.8125 L 59.25 39.5625 L 0.75 39.5625 Z M 0.75 20.8125 " clip-rule="nonzero"/></clipPath><clipPath id="e2c471df14"><path d="M 0.75 0.8125 L 59.25 0.8125 L 59.25 18 L 0.75 18 Z M 0.75 0.8125 " clip-rule="nonzero"/></clipPath><clipPath id="7aa29b1866"><path d="M 9 11 L 18 11 L 18 19.5625 L 9 19.5625 Z M 9 11 " clip-rule="nonzero"/></clipPath><clipPath id="696d16ee2e"><path d="M 45 11 L 54 11 L 54 19.5625 L 45 19.5625 Z M 45 11 " clip-rule="nonzero"/></clipPath><clipPath id="bceb73b0dd"><rect x="0" width="60" y="0" height="20"/></clipPath></defs><g clip-path="url(#69427a114a)"><g transform="matrix(1, 0, 0, 1, 0, 20)"><g clip-path="url(#bceb73b0dd)"><g clip-path="url(#e2c471df14)"><path fill="#000000" d="M 48.925781 10.976562 C 52.316406 10.773438 54.199219 14.09375 53.652344 17.253906 C 54.746094 17.085938 57.390625 17.15625 58.339844 16.625 C 58.65625 15.933594 58.160156 16.21875 58.199219 15.792969 C 58.421875 14.601562 59.070312 15.457031 59.152344 14.207031 C 59.183594 13.824219 59.304688 12.65625 58.957031 12.46875 C 58.957031 12.46875 58.460938 12.195312 58.460938 12.195312 C 58.191406 12.050781 58.234375 11.589844 57.894531 10.933594 C 56.917969 8.597656 47.171875 7.90625 44.601562 7.550781 C 43.996094 7.914062 42.765625 7.984375 42.128906 7.574219 C 42.128906 7.574219 37.1875 4.457031 37.1875 4.457031 C 37.1875 4.457031 35.109375 3.28125 35.109375 3.28125 C 35.109375 3.28125 35.027344 3.222656 35.027344 3.222656 C 35.027344 3.222656 35.058594 3.183594 35.074219 3.160156 L 35.15625 3.058594 C 34.398438 2.539062 31.691406 2.289062 30.644531 2.164062 C 29.859375 1.6875 28.660156 1.042969 27.761719 1.011719 C 26.109375 0.949219 22.808594 0.851562 21.164062 0.828125 C 20.230469 0.828125 12.199219 0.773438 11.507812 0.855469 C 10.714844 0.886719 10.109375 1.414062 9.503906 1.855469 C 8.785156 2 8.640625 1.800781 8.402344 1.804688 C 8.351562 1.867188 5.488281 1.742188 5.554688 1.988281 C 5.554688 2.339844 6.550781 2.746094 6.8125 2.949219 C 5.269531 4.449219 3.125 5.816406 2.417969 8.027344 C 2.066406 9.246094 2.078125 9.984375 2.089844 11.234375 C 2.09375 11.558594 1.316406 12.0625 1.027344 12.199219 C 0.933594 12.242188 0.820312 12.390625 0.8125 12.511719 C 0.738281 13.667969 0.980469 15.460938 2.273438 15.78125 C 2.769531 15.945312 7.304688 16.523438 7.933594 16.609375 C 7.933594 16.609375 9.261719 16.78125 9.261719 16.78125 C 9.3125 16.789062 9.339844 16.632812 9.339844 16.585938 C 8.722656 10.539062 16.816406 8.652344 18.375 14.59375 C 18.570312 15.539062 18.550781 16.207031 18.480469 17.199219 C 18.484375 17.230469 18.542969 17.324219 18.566406 17.34375 C 23.761719 17.253906 39.558594 17.546875 44.539062 17.246094 C 44.246094 14.324219 45.683594 11.035156 48.925781 10.976562 Z M 11.925781 1.238281 C 13.6875 1.191406 18.339844 1.167969 20.125 1.214844 C 20.003906 1.445312 19.90625 1.605469 19.765625 1.785156 L 11.070312 1.804688 C 11.195312 1.605469 11.75 1.242188 11.925781 1.238281 Z M 26.554688 1.945312 C 25.089844 1.898438 22.144531 1.816406 20.6875 1.785156 L 20.886719 1.207031 C 21.550781 1.210938 26.398438 1.347656 27.183594 1.367188 C 27.894531 1.386719 28.492188 1.660156 29.054688 2.042969 Z M 17.6875 5.628906 C 17.679688 5.523438 17.753906 5.332031 17.777344 5.257812 C 17.992188 4.878906 18.957031 3.152344 19.15625 2.8125 C 21.257812 2.78125 24.585938 2.851562 26.6875 2.902344 C 26.777344 3.757812 27.09375 6.761719 27.179688 7.5625 L 17.757812 7.246094 Z M 5.609375 6.71875 C 6.265625 5.601562 7.0625 4.726562 8 3.933594 C 10.039062 2.402344 15.566406 3.003906 18.179688 2.816406 L 16.425781 5.679688 C 16.125 6.09375 15.816406 7.074219 15.167969 7.015625 C 12.371094 6.9375 8.414062 6.808594 5.609375 6.71875 Z M 38.761719 7.984375 C 36.332031 7.902344 31.34375 7.734375 28.941406 7.652344 C 28.699219 6.65625 28.042969 3.964844 27.789062 2.933594 C 32.796875 2.976562 34.328125 3.339844 38.5 6.238281 C 38.257812 6.808594 38.109375 7.777344 38.761719 7.984375 Z M 2.28125 11.089844 C 2.164062 10.910156 2.386719 8.027344 2.664062 8.050781 L 3.675781 8.136719 C 3.859375 8.152344 4.003906 8.371094 3.984375 8.539062 C 3.8125 9.632812 3.800781 11.398438 2.28125 11.089844 Z M 17.703125 9.421875 C 17.371094 9.417969 17.015625 9.175781 17.386719 8.894531 C 17.683594 8.769531 19.78125 8.609375 19.664062 9.21875 C 19.449219 9.625 18.066406 9.363281 17.703125 9.421875 Z M 30.1875 9.699219 C 29.945312 9.695312 29.65625 9.636719 29.578125 9.460938 C 29.332031 8.875 31.21875 9.066406 31.535156 9.089844 C 32.332031 9.242188 31.972656 9.765625 31.355469 9.714844 C 31.355469 9.714844 30.1875 9.699219 30.1875 9.699219 Z M 56.136719 11.976562 C 55.609375 12.058594 54.664062 10.839844 54.804688 10.46875 C 55.023438 10.152344 56.464844 10.296875 56.949219 10.410156 C 57.515625 10.539062 57.953125 11.378906 58.082031 11.964844 C 57.824219 12.078125 56.425781 11.96875 56.136719 11.976562 Z M 4.078125 12.042969 L 1.867188 12.007812 L 1.851562 11.925781 L 2.058594 11.71875 C 3.632812 11.730469 8.542969 11.8125 10.191406 11.835938 C 10.152344 11.933594 10.019531 12.132812 9.9375 12.128906 L 8.863281 12.117188 C 7.671875 12.105469 5.269531 12.066406 4.078125 12.042969 Z M 20.117188 12.324219 L 18.492188 12.300781 C 18.421875 12.207031 18.347656 12.089844 18.292969 11.972656 C 20.589844 12.015625 25.679688 12.109375 27.933594 12.148438 C 27.941406 12.257812 27.941406 12.339844 27.917969 12.453125 Z M 28.453125 12.144531 L 42.410156 12.402344 L 42.40625 12.730469 L 28.449219 12.472656 Z M 42.957031 12.703125 C 42.90625 12.648438 42.917969 12.398438 43 12.398438 L 44.75 12.414062 C 45.027344 12.46875 44.78125 12.625 44.6875 12.734375 Z M 53.375 12.613281 L 58.96875 12.679688 L 58.964844 13.019531 L 53.371094 12.953125 Z M 53.375 12.613281 " fill-opacity="1" fill-rule="nonzero"/></g><g clip-path="url(#7aa29b1866)"><path fill="#000000" d="M 9.9375 15.527344 C 10.027344 20.902344 17.863281 20.902344 17.953125 15.527344 C 17.863281 10.152344 10.023438 10.152344 9.9375 15.527344 Z M 9.9375 15.527344 " fill-opacity="1" fill-rule="nonzero"/></g><g clip-path="url(#696d16ee2e)"><path fill="#000000" d="M 45.132812 15.527344 C 45.222656 20.894531 53.050781 20.894531 53.140625 15.527344 C 53.050781 10.15625 45.222656 10.15625 45.132812 15.527344 Z M 45.132812 15.527344 " fill-opacity="1" fill-rule="nonzero"/></g></g></g></g></svg>