<svg xmlns="http://www.w3.org/2000/svg" xmlns:xlink="http://www.w3.org/1999/xlink" width="80" zoomAndPan="magnify" viewBox="0 0 60 60" height="80" preserveAspectRatio="xMidYMid meet" version="1.0"><defs><clipPath id="09a4fa28e2"><path d="M 0.75 15 L 59 15 L 59 42 L 0.75 42 Z M 0.75 15 " clip-rule="nonzero"/></clipPath></defs><g clip-path="url(#09a4fa28e2)"><path fill="#010101" d="M 38.542969 25.386719 C 36.632812 25.457031 28.558594 25.757812 27.273438 25.21875 L 27.25 19.933594 C 27.191406 17.222656 37.332031 22.332031 38.542969 25.386719 Z M 23.335938 19.402344 C 25.738281 18.871094 24.910156 23.589844 24.605469 25.242188 C 23.050781 25.75 15.535156 25.402344 13.246094 25.453125 C 14.921875 22.511719 20.179688 19.742188 23.335938 19.402344 Z M 3.941406 41.398438 C 5.003906 38.105469 4.105469 37.878906 6.425781 35.042969 C 10.261719 30.355469 18.003906 31.628906 20.339844 37.699219 C 21.324219 40.261719 19.863281 41.703125 22.753906 41.789062 C 25.179688 41.859375 37.578125 41.941406 38.035156 41.53125 C 38.066406 41.464844 38.101562 41.289062 38.109375 41.324219 C 38.121094 41.359375 38.613281 37.234375 40.714844 34.824219 C 43.582031 31.535156 49.488281 30.863281 53.296875 35.796875 C 55.640625 38.828125 54.574219 42.96875 56.753906 40.90625 C 58.238281 39.5 59.238281 36.34375 58.515625 33.734375 C 57.140625 28.773438 51.445312 26.9375 46.742188 26.640625 C 42.730469 26.386719 44.96875 26.597656 41.300781 22.464844 C 35.542969 15.976562 23.050781 12.523438 14.019531 19.496094 C 11.394531 21.527344 11.3125 21.777344 9.339844 24.164062 C 5.445312 28.863281 1.878906 27.460938 1.03125 34.75 C 0.761719 37.058594 1.113281 38.761719 2.289062 40.59375 C 2.78125 41.359375 2.757812 41.429688 3.941406 41.398438 Z M 3.941406 41.398438 " fill-opacity="1" fill-rule="evenodd"/></g><path fill="#010101" d="M 11.285156 34.902344 C 3.683594 36.882812 6.558594 47.773438 13.90625 46.050781 C 21.140625 44.359375 18.34375 33.0625 11.285156 34.902344 Z M 11.285156 34.902344 " fill-opacity="1" fill-rule="evenodd"/><path fill="#010101" d="M 45.925781 34.835938 C 38.339844 35.925781 39.984375 47.179688 47.488281 46.171875 C 54.890625 45.175781 53.285156 33.78125 45.925781 34.835938 Z M 45.925781 34.835938 " fill-opacity="1" fill-rule="evenodd"/></svg>