<svg xmlns="http://www.w3.org/2000/svg" xmlns:xlink="http://www.w3.org/1999/xlink" width="80" zoomAndPan="magnify" viewBox="0 0 60 60" height="80" preserveAspectRatio="xMidYMid meet" version="1.0"><defs><clipPath id="2a3f186f71"><path d="M 0.75 17.25 L 59.25 17.25 L 59.25 39 L 0.75 39 Z M 0.75 17.25 " clip-rule="nonzero"/></clipPath><clipPath id="10bff444d8"><path d="M 6 33 L 17 33 L 17 42.75 L 6 42.75 Z M 6 33 " clip-rule="nonzero"/></clipPath><clipPath id="142f1552b2"><path d="M 42 33 L 53 33 L 53 42.75 L 42 42.75 Z M 42 33 " clip-rule="nonzero"/></clipPath></defs><g clip-path="url(#2a3f186f71)"><path fill="#000000" d="M 18.167969 17.308594 C 16.582031 17.371094 14.390625 17.507812 12.445312 17.664062 C 11.105469 17.773438 10.40625 17.800781 8.824219 17.800781 C 7.015625 17.800781 6.84375 17.8125 6.628906 17.90625 C 6.363281 18.027344 6.222656 18.25 6.222656 18.542969 C 6.222656 18.820312 6.496094 19.105469 7.207031 19.582031 L 7.773438 19.964844 L 6.953125 20.914062 C 6.5 21.441406 5.699219 22.375 5.164062 23 C 4.632812 23.625 3.875 24.511719 3.480469 24.964844 C 2.402344 26.222656 2.121094 26.652344 1.800781 27.527344 C 1.398438 28.632812 1.324219 29.1875 1.273438 31.382812 L 1.242188 32.988281 L 1.078125 33.21875 C 0.800781 33.613281 0.75 33.796875 0.75 34.414062 C 0.75 36.421875 1.652344 37.761719 3.488281 38.496094 C 3.972656 38.691406 4.792969 38.878906 5.167969 38.878906 L 5.40625 38.878906 L 5.367188 38.449219 C 5.34375 38.210938 5.355469 37.765625 5.394531 37.453125 C 5.671875 34.917969 7.402344 32.855469 9.835938 32.164062 C 10.726562 31.910156 11.484375 31.851562 12.375 31.992188 C 14.675781 32.335938 16.648438 34.082031 17.304688 36.34375 C 17.484375 36.953125 17.578125 37.765625 17.550781 38.382812 L 17.527344 38.878906 L 41.21875 38.878906 L 41.191406 38.363281 C 41.152344 37.746094 41.285156 36.800781 41.488281 36.183594 C 41.785156 35.289062 42.222656 34.5625 42.882812 33.878906 C 43.894531 32.828125 45.039062 32.21875 46.441406 31.992188 C 49.222656 31.539062 52.0625 33.257812 53.0625 35.984375 C 53.300781 36.648438 53.394531 37.234375 53.394531 38.117188 L 53.394531 38.886719 L 55.84375 38.863281 C 57.761719 38.847656 58.332031 38.828125 58.503906 38.769531 C 58.808594 38.65625 59.117188 38.347656 59.195312 38.078125 C 59.332031 37.578125 59.234375 37.296875 58.792969 36.921875 C 58.410156 36.59375 58.402344 36.535156 58.703125 35.820312 C 59.339844 34.292969 59.289062 33.257812 58.515625 31.832031 C 57.257812 29.53125 55.195312 28.007812 51.515625 26.664062 C 50.390625 26.253906 49.3125 25.933594 47.226562 25.386719 L 45.625 24.964844 L 44.65625 24.289062 C 41.488281 22.09375 38.441406 20.394531 35.738281 19.328125 C 32.710938 18.128906 29.21875 17.503906 24.5 17.304688 C 22.996094 17.242188 19.855469 17.242188 18.167969 17.308594 Z M 22.609375 20.523438 C 22.78125 21.933594 23.199219 25.453125 23.199219 25.484375 C 23.199219 25.496094 22.945312 25.492188 22.636719 25.46875 C 21.488281 25.398438 16.757812 25.105469 14.960938 24.992188 C 12.546875 24.847656 12.507812 24.847656 12.261719 24.722656 C 12.003906 24.589844 10.621094 23.265625 10.503906 23.046875 C 10.351562 22.746094 10.433594 22.585938 11.4375 21.253906 C 12.246094 20.179688 12.429688 19.96875 12.640625 19.863281 C 12.847656 19.757812 13.097656 19.71875 14.1875 19.632812 C 16.90625 19.398438 19.496094 19.261719 21.292969 19.246094 L 22.453125 19.238281 Z M 26.492188 19.355469 C 31.175781 19.738281 35.285156 21.085938 39.707031 23.710938 C 40.40625 24.117188 40.585938 24.273438 40.734375 24.5625 C 41.011719 25.097656 40.917969 25.640625 40.488281 26.078125 C 40.09375 26.464844 39.917969 26.503906 38.8125 26.429688 C 38.332031 26.402344 37.09375 26.328125 36.058594 26.265625 C 35.023438 26.203125 32.773438 26.066406 31.054688 25.960938 C 29.332031 25.855469 27.625 25.757812 27.25 25.734375 C 26.878906 25.710938 26.5625 25.679688 26.550781 25.664062 C 26.535156 25.644531 26.324219 24.753906 26.078125 23.691406 C 25.832031 22.625 25.5 21.21875 25.351562 20.566406 C 25.066406 19.34375 25.066406 19.34375 25.074219 19.289062 C 25.082031 19.257812 25.472656 19.273438 26.492188 19.355469 Z M 5.523438 26.441406 C 6.667969 26.972656 6.945312 27.15625 6.945312 27.386719 C 6.945312 27.550781 6.886719 27.617188 5.566406 29.125 C 4.976562 29.804688 4.464844 30.335938 4.34375 30.410156 C 4.152344 30.519531 3.425781 30.628906 2.917969 30.636719 C 2.636719 30.636719 2.464844 30.429688 2.464844 30.089844 C 2.464844 29.082031 2.839844 27.78125 3.40625 26.851562 C 3.769531 26.242188 4.0625 25.933594 4.265625 25.933594 C 4.351562 25.933594 4.917969 26.160156 5.523438 26.441406 Z M 52.332031 28.953125 C 53.605469 29.207031 54.976562 29.734375 55.804688 30.28125 C 56.523438 30.757812 57.171875 31.527344 57.425781 32.210938 C 57.574219 32.609375 57.570312 32.714844 57.398438 32.828125 C 57.265625 32.914062 57.210938 32.914062 56.335938 32.765625 C 55.089844 32.5625 54.238281 32.339844 53.84375 32.128906 C 53.433594 31.910156 52.878906 31.453125 51.90625 30.535156 C 51 29.683594 50.722656 29.335938 50.75 29.074219 C 50.785156 28.714844 51.039062 28.695312 52.332031 28.953125 Z M 52.332031 28.953125 " fill-opacity="1" fill-rule="nonzero"/></g><g clip-path="url(#10bff444d8)"><path fill="#000000" d="M 10.742188 33.347656 C 9.320312 33.589844 8.042969 34.476562 7.359375 35.699219 C 7.097656 36.164062 6.847656 36.9375 6.777344 37.519531 C 6.601562 38.933594 7.148438 40.433594 8.191406 41.429688 C 9.542969 42.703125 11.449219 43.089844 13.171875 42.425781 C 15.042969 41.699219 16.285156 39.769531 16.160156 37.773438 C 16.117188 37.097656 16 36.648438 15.707031 36.023438 C 15.421875 35.40625 15.148438 35.035156 14.640625 34.554688 C 13.613281 33.585938 12.109375 33.121094 10.742188 33.347656 Z M 10.742188 33.347656 " fill-opacity="1" fill-rule="nonzero"/></g><g clip-path="url(#142f1552b2)"><path fill="#000000" d="M 46.371094 33.398438 C 44.878906 33.730469 43.671875 34.667969 43.03125 36.019531 C 42.703125 36.699219 42.589844 37.246094 42.589844 38.105469 C 42.59375 38.757812 42.609375 38.917969 42.742188 39.347656 C 43.128906 40.628906 44.027344 41.667969 45.238281 42.253906 C 45.929688 42.585938 46.34375 42.691406 47.117188 42.734375 C 48.953125 42.824219 50.707031 41.789062 51.542969 40.125 C 51.902344 39.40625 52.023438 38.890625 52.027344 38.078125 C 52.035156 35.890625 50.691406 34.09375 48.597656 33.480469 C 47.929688 33.285156 47.027344 33.253906 46.371094 33.398438 Z M 46.371094 33.398438 " fill-opacity="1" fill-rule="nonzero"/></g></svg>