<svg xmlns="http://www.w3.org/2000/svg" xmlns:xlink="http://www.w3.org/1999/xlink" width="80" zoomAndPan="magnify" viewBox="0 0 60 60" height="80" preserveAspectRatio="xMidYMid meet" version="1.0">
  <defs>
    <clipPath id="e0b0a4c1d4"><path d="M 8 11.609375 L 52 11.609375 L 52 41 L 8 41 Z M 8 11.609375 " clip-rule="nonzero"/></clipPath>
    <clipPath id="a10402f3e5"><path d="M 0.75 30 L 59.25 30 L 59.25 48.359375 L 0.75 48.359375 Z M 0.75 30 " clip-rule="nonzero"/></clipPath>
  </defs>
  <path fill="#000000" d="M 23.300781 40.140625 C 22.855469 40.140625 22.445312 39.867188 22.308594 39.421875 L 19.773438 31.242188 L 10.078125 25.179688 C 9.769531 24.976562 9.566406 24.632812 9.597656 24.257812 C 9.632812 23.878906 9.871094 23.539062 10.214844 23.398438 L 13.8125 21.792969 C 14.085938 21.652344 14.394531 21.652344 14.636719 21.792969 L 21.382812 24.804688 C 22.308594 22.785156 23.953125 21.242188 25.90625 20.113281 C 25.972656 20.25 26.007812 20.351562 26.078125 20.457031 C 26.488281 21.378906 27.035156 22.304688 27.6875 23.09375 C 28.132812 23.675781 28.679688 24.222656 29.332031 24.5625 C 30.632812 25.351562 32.175781 25.625 33.71875 25.625 C 35.667969 25.625 38.136719 25.042969 40.019531 24.496094 C 40.84375 24.257812 41.699219 23.980469 42.523438 23.707031 C 43.617188 25.351562 44.542969 26.859375 44.578125 27.097656 C 44.714844 27.644531 44.335938 28.195312 43.789062 28.332031 C 37.964844 29.496094 32.175781 31.855469 32.347656 34.390625 C 32.449219 36.171875 32.003906 37.609375 31.078125 38.636719 C 29.777344 40.039062 28.0625 40.140625 27.859375 40.140625 Z M 27.140625 19.496094 C 30.941406 17.785156 35.703125 17.441406 39.300781 18.128906 C 39.882812 18.230469 40.226562 18.777344 40.125 19.324219 C 40.089844 19.53125 39.988281 19.703125 39.847656 19.839844 C 40.398438 20.558594 41.082031 21.515625 41.734375 22.511719 C 41.460938 22.613281 41.183594 22.714844 40.910156 22.816406 C 39.574219 23.230469 38.203125 23.605469 36.867188 23.84375 C 35.875 24.050781 34.746094 24.257812 33.75 24.257812 C 32.484375 24.257812 31.148438 24.050781 30.050781 23.433594 C 29.402344 23.058594 28.851562 22.40625 28.40625 21.792969 C 27.960938 21.175781 27.617188 20.523438 27.277344 19.839844 C 27.242188 19.769531 27.171875 19.632812 27.140625 19.496094 Z M 28.03125 31.582031 C 28.40625 31.582031 28.714844 31.273438 28.714844 30.898438 C 28.714844 30.523438 28.40625 30.214844 28.03125 30.214844 L 25.015625 30.214844 C 24.636719 30.214844 24.332031 30.523438 24.332031 30.898438 C 24.332031 31.273438 24.636719 31.582031 25.015625 31.582031 Z M 28.03125 35.453125 C 28.40625 35.453125 28.714844 35.144531 28.714844 34.765625 C 28.714844 34.390625 28.40625 34.082031 28.03125 34.082031 L 25.015625 34.082031 C 24.636719 34.082031 24.332031 34.390625 24.332031 34.765625 C 24.332031 35.144531 24.636719 35.453125 25.015625 35.453125 Z M 28.03125 35.453125 " fill-opacity="1" fill-rule="evenodd"/>
  <path fill="#000000" d="M 50.09375 40.246094 C 49.75 40.246094 49.375 40.074219 49.203125 39.730469 L 35.773438 15.183594 L 30.667969 13.644531 C 30.121094 13.472656 29.8125 12.890625 29.984375 12.339844 C 30.121094 11.792969 30.703125 11.484375 31.25 11.65625 L 36.765625 13.335938 C 37.039062 13.402344 37.246094 13.574219 37.382812 13.8125 L 51.019531 38.738281 C 51.257812 39.253906 51.085938 39.867188 50.605469 40.140625 C 50.433594 40.210938 50.265625 40.246094 50.09375 40.246094 Z M 9.871094 40.246094 C 9.597656 40.246094 9.289062 40.140625 9.085938 39.867188 C 8.742188 39.421875 8.8125 38.808594 9.257812 38.429688 L 19.980469 29.769531 C 20.425781 29.425781 21.074219 29.496094 21.417969 29.941406 C 21.796875 30.382812 21.726562 31.035156 21.28125 31.378906 L 10.523438 40.039062 C 10.351562 40.175781 10.113281 40.246094 9.871094 40.246094 Z M 9.871094 40.246094 " fill-opacity="1" fill-rule="evenodd"/>
  <path fill="#000000" d="M 50.09375 48.359375 C 45.058594 48.359375 40.980469 44.25 40.980469 39.21875 C 40.980469 34.183594 45.058594 30.109375 50.09375 30.109375 C 55.128906 30.109375 59.238281 34.21875 59.238281 39.21875 C 59.238281 44.25 55.128906 48.359375 50.09375 48.359375 Z M 9.871094 44.25 C 12.648438 44.25 14.910156 41.992188 14.910156 39.21875 C 14.910156 36.480469 12.648438 34.21875 9.871094 34.21875 C 7.132812 34.21875 4.871094 36.480469 4.871094 39.21875 C 4.871094 41.992188 7.132812 44.25 9.871094 44.25 Z M 9.871094 35.589844 C 11.894531 35.589844 13.503906 37.230469 13.503906 39.21875 C 13.503906 41.238281 11.894531 42.882812 9.871094 42.882812 C 7.886719 42.882812 6.242188 41.238281 6.242188 39.21875 C 6.242188 37.230469 7.886719 35.589844 9.871094 35.589844 Z M 50.09375 44.25 C 52.867188 44.25 55.09375 41.992188 55.09375 39.21875 C 55.09375 36.480469 52.867188 34.21875 50.09375 34.21875 C 47.351562 34.21875 45.089844 36.480469 45.089844 39.21875 C 45.089844 41.992188 47.351562 44.25 50.09375 44.25 Z M 50.09375 35.589844 C 52.113281 35.589844 53.722656 37.230469 53.722656 39.21875 C 53.722656 41.238281 52.113281 42.882812 50.09375 42.882812 C 48.105469 42.882812 46.460938 41.238281 46.460938 39.21875 C 46.460938 37.230469 48.105469 35.589844 50.09375 35.589844 Z M 9.871094 48.359375 C 4.871094 48.359375 0.761719 44.25 0.761719 39.21875 C 0.761719 34.183594 4.871094 30.109375 9.871094 30.109375 C 14.910156 30.109375 19.019531 34.21875 19.019531 39.21875 C 19.019531 44.25 14.910156 48.359375 9.871094 48.359375 Z M 9.871094 48.359375 " fill-opacity="1" fill-rule="evenodd"/>
  <path fill="#000000" d="M 44.234375 29.527344 C 43.960938 29.527344 43.71875 29.425781 43.515625 29.21875 C 43.105469 28.84375 43.105469 28.195312 43.480469 27.78125 C 45.226562 25.933594 47.558594 24.941406 50.09375 24.941406 C 50.675781 24.941406 51.121094 25.386719 51.121094 25.96875 C 51.121094 26.515625 50.675781 26.996094 50.09375 26.996094 C 48.140625 26.996094 46.324219 27.78125 44.988281 29.1875 C 44.78125 29.390625 44.507812 29.527344 44.234375 29.527344 Z M 44.234375 29.527344 " fill-opacity="1" fill-rule="evenodd"/><path fill="#000000" d="M 41.632812 18.710938 L 42.078125 18.539062 C 42.417969 18.367188 42.863281 18.4375 43.136719 18.675781 L 47.285156 22.269531 C 47.558594 22.511719 47.695312 22.851562 47.625 23.230469 C 47.59375 23.570312 47.351562 23.84375 47.007812 23.980469 L 44.953125 24.839844 Z M 41.632812 18.710938 " fill-opacity="1" fill-rule="evenodd"/>
</svg>