<svg xmlns="http://www.w3.org/2000/svg" xmlns:xlink="http://www.w3.org/1999/xlink" width="80" zoomAndPan="magnify" viewBox="0 0 60 60" height="80" preserveAspectRatio="xMidYMid meet" version="1.0"><defs><clipPath id="5098398333"><path d="M 0.75 21.894531 L 59.25 21.894531 L 59.25 38 L 0.75 38 Z M 0.75 21.894531 " clip-rule="nonzero"/></clipPath><clipPath id="186ce1f147"><path d="M 7 29 L 16 29 L 16 38.394531 L 7 38.394531 Z M 7 29 " clip-rule="nonzero"/></clipPath><clipPath id="53c20bbb0b"><path d="M 42 29 L 51 29 L 51 38.394531 L 42 38.394531 Z M 42 29 " clip-rule="nonzero"/></clipPath></defs><g clip-path="url(#5098398333)"><path fill="#000000" d="M 4.605469 24.550781 C 4.902344 24.910156 5.152344 25.472656 5.675781 25.457031 C 7.464844 25.40625 9.894531 24.578125 11.707031 24.195312 C 18.011719 22.875 25.023438 21.273438 31.472656 22.144531 C 31.792969 22.1875 34.410156 22.660156 34.410156 22.851562 L 34.265625 23.117188 C 37.152344 24.25 39.867188 25.769531 42.640625 27.15625 C 47.398438 26.941406 53.085938 28.070312 57.25 30.476562 C 57.644531 30.703125 59.234375 31.707031 59.246094 32.136719 C 59.261719 32.566406 58.664062 32.628906 58.578125 32.753906 C 58.308594 33.152344 58.203125 34.25 57.863281 34.703125 C 57.882812 34.964844 58.992188 35.605469 58.511719 35.910156 C 58.828125 36.160156 59.464844 36.074219 59.175781 36.667969 C 59.054688 36.769531 57.996094 36.835938 57.730469 36.855469 C 56.5625 36.929688 55.339844 36.980469 54.175781 37.007812 C 53.175781 37.035156 52.167969 36.984375 51.167969 37.007812 C 51.570312 35.242188 51.773438 33.476562 50.945312 31.796875 L 52.464844 31.796875 L 52.949219 31.269531 L 50.613281 31.269531 C 47.164062 26.691406 40.359375 30.191406 41.824219 35.722656 L 26.886719 34.890625 C 26.449219 34.804688 26 34.726562 25.589844 34.550781 C 25.175781 34.375 24.839844 33.980469 24.402344 33.910156 C 24.53125 34.082031 24.71875 34.308594 24.882812 34.441406 C 26.171875 35.445312 29.046875 35.246094 30.667969 35.347656 C 34.34375 35.578125 38.03125 35.828125 41.714844 36.023438 C 41.988281 36.074219 42.011719 36.761719 42.121094 37.007812 L 16.394531 37.007812 C 16.65625 35.667969 16.808594 34.289062 16.492188 32.941406 C 16.074219 31.148438 14.488281 29.59375 12.703125 29.25 C 8.601562 28.460938 5.621094 32.554688 7.125 36.402344 C 7.015625 36.480469 6.039062 36.082031 5.847656 36.007812 C 5.257812 35.78125 4.535156 35.320312 4.011719 35.15625 C 3.65625 35.042969 2.722656 35.011719 2.476562 34.796875 C 2.359375 34.691406 1.808594 33.238281 1.789062 33.039062 C 1.765625 32.839844 2.21875 32.945312 2.304688 32.816406 C 2.210938 32.546875 1.765625 32.058594 1.722656 31.816406 C 1.683594 31.589844 1.871094 31.308594 1.867188 31.003906 C 1.863281 30.601562 1.675781 30.039062 1.707031 29.644531 C 1.738281 29.300781 2.109375 28.796875 2.210938 28.34375 C 2.382812 27.570312 2.476562 26.742188 2.375 25.960938 L 2.957031 25.722656 L 2.667969 24.558594 C 1.378906 24.777344 1.160156 23.878906 0.75 22.890625 C 1.054688 22.902344 1.367188 22.871094 1.675781 22.890625 C 2.398438 22.933594 4.625 23.144531 5.214844 23.363281 C 5.660156 23.527344 6.023438 24.171875 6.308594 24.550781 Z M 40.714844 27.417969 C 40.59375 27.253906 40.347656 27.128906 40.171875 27.027344 C 34.644531 23.851562 31.375 22.515625 24.8125 23.191406 C 24.304688 23.242188 23.792969 23.351562 23.289062 23.417969 L 23.875 26.238281 C 27.898438 27.015625 32.0625 27.140625 36.152344 27.496094 L 38.085938 27.570312 Z M 23.4375 32.324219 L 23.722656 32.148438 C 23.347656 31.335938 22.976562 30.5 22.695312 29.648438 C 22.558594 29.234375 22.265625 28.457031 22.257812 28.050781 C 22.25 27.476562 22.894531 26.808594 23.03125 26.25 L 22.546875 23.492188 L 17.507812 24.929688 L 22.769531 26.136719 C 22.820312 26.207031 22.140625 27.328125 22.078125 27.582031 C 21.898438 28.339844 22.234375 29.089844 22.472656 29.796875 C 22.757812 30.652344 23.167969 31.464844 23.4375 32.324219 Z M 2.75 26.816406 L 2.710938 28.101562 C 3.390625 28.371094 4.074219 28.066406 3.976562 27.265625 Z M 20.398438 27.417969 C 19.050781 27.152344 18.09375 27.410156 19.105469 28.847656 C 19.851562 29.90625 20.882812 30.898438 21.804688 31.796875 L 19.746094 28.34375 L 19.8125 27.765625 Z M 57.546875 31.496094 C 56.324219 30.488281 54.652344 29.898438 53.097656 29.683594 L 55.15625 31.324219 Z M 57.546875 31.496094 " fill-opacity="1" fill-rule="nonzero"/></g><g clip-path="url(#186ce1f147)"><path fill="#000000" d="M 11.261719 30.007812 C 16.808594 29.449219 17.367188 37.898438 12.128906 38.363281 C 6.59375 38.855469 5.949219 30.542969 11.261719 30.007812 Z M 11.261719 30.007812 " fill-opacity="1" fill-rule="nonzero"/></g><g clip-path="url(#53c20bbb0b)"><path fill="#000000" d="M 46.1875 30.007812 C 51.210938 29.527344 52.390625 37.027344 47.59375 38.234375 C 41.835938 39.6875 40.410156 30.5625 46.1875 30.007812 Z M 46.1875 30.007812 " fill-opacity="1" fill-rule="nonzero"/></g></svg>