<svg xmlns="http://www.w3.org/2000/svg" xmlns:xlink="http://www.w3.org/1999/xlink" width="80" zoomAndPan="magnify" viewBox="0 0 60 60" height="80" preserveAspectRatio="xMidYMid meet" version="1.0"><defs><clipPath id="a4dd326355"><path d="M 2 15.265625 L 59.25 15.265625 L 59.25 41 L 2 41 Z M 2 15.265625 " clip-rule="nonzero"/></clipPath><clipPath id="7fcf5c7a59"><path d="M 0.75 30 L 24 30 L 24 41 L 0.75 41 Z M 0.75 30 " clip-rule="nonzero"/></clipPath><clipPath id="43295fdaa7"><path d="M 8 35 L 18 35 L 18 44.515625 L 8 44.515625 Z M 8 35 " clip-rule="nonzero"/></clipPath><clipPath id="9ba54e69c2"><path d="M 42 35 L 52 35 L 52 44.515625 L 42 44.515625 Z M 42 35 " clip-rule="nonzero"/></clipPath></defs><g clip-path="url(#a4dd326355)"><path fill="#000000" d="M 4.847656 15.320312 C 3.832031 15.464844 3.179688 16.027344 2.96875 16.917969 C 2.933594 17.070312 2.84375 17.730469 2.765625 18.382812 C 2.457031 20.996094 2.265625 23.835938 2.191406 26.789062 L 2.152344 28.382812 L 4.214844 28.382812 C 8.136719 28.382812 10.378906 28.5625 12.507812 29.035156 C 16.445312 29.914062 19.636719 31.988281 21.578125 34.933594 C 22.589844 36.46875 23.222656 38.011719 23.632812 39.960938 L 23.816406 40.804688 L 31.417969 40.816406 C 35.601562 40.820312 39.394531 40.816406 39.859375 40.792969 L 40.695312 40.761719 L 40.695312 40.042969 C 40.695312 39.640625 40.734375 39.125 40.78125 38.878906 C 41.433594 35.476562 44.820312 33.234375 48.121094 34.015625 C 49.222656 34.28125 50.101562 34.753906 50.914062 35.527344 C 51.214844 35.8125 51.59375 36.234375 51.753906 36.460938 C 52.546875 37.605469 52.933594 38.984375 52.847656 40.371094 L 52.820312 40.84375 L 55.511719 40.820312 C 58.445312 40.800781 58.382812 40.804688 58.789062 40.460938 C 58.898438 40.375 59.039062 40.175781 59.113281 40.015625 C 59.242188 39.75 59.25 39.671875 59.25 38.546875 C 59.25 37.296875 59.222656 37.109375 58.988281 36.792969 C 58.796875 36.539062 58.570312 36.394531 58.222656 36.304688 L 57.917969 36.230469 L 57.917969 35.8125 C 57.917969 35.582031 57.910156 35.113281 57.898438 34.769531 L 57.886719 34.152344 L 56.804688 34.050781 C 56.203125 33.992188 55.601562 33.914062 55.464844 33.875 C 54.660156 33.632812 54.046875 32.871094 53.832031 31.851562 C 53.660156 31.03125 53.898438 30.511719 54.511719 30.359375 C 54.738281 30.304688 54.960938 30.320312 56.066406 30.46875 C 56.769531 30.558594 57.40625 30.648438 57.480469 30.660156 C 57.636719 30.679688 57.636719 30.621094 57.484375 30.203125 C 57.246094 29.558594 56.820312 28.953125 56.242188 28.421875 C 55.582031 27.8125 54.765625 27.328125 53.121094 26.582031 C 52.640625 26.355469 52.070312 26.0625 51.867188 25.925781 C 51.414062 25.628906 50.484375 24.683594 47.5625 21.566406 C 44.316406 18.097656 43.332031 17.082031 42.941406 16.8125 C 41.890625 16.066406 40.492188 15.664062 38.058594 15.386719 C 37.347656 15.300781 35.503906 15.289062 21.234375 15.28125 C 11.769531 15.273438 5.054688 15.289062 4.847656 15.320312 Z M 39.703125 18.75 C 40.730469 18.855469 41.425781 19.136719 42.113281 19.722656 C 42.9375 20.429688 46.964844 24.507812 47.214844 24.890625 C 47.953125 26.015625 47.820312 27.410156 46.941406 27.84375 C 46.800781 27.914062 46.574219 27.988281 46.441406 28.011719 C 46.3125 28.027344 45.519531 27.996094 44.683594 27.933594 C 43.851562 27.871094 41.824219 27.71875 40.183594 27.59375 C 38.542969 27.46875 36.683594 27.328125 36.042969 27.285156 C 35.402344 27.238281 34.714844 27.160156 34.511719 27.109375 C 33.511719 26.875 32.898438 26.246094 32.757812 25.328125 C 32.699219 24.996094 32.609375 21.640625 32.609375 20.128906 C 32.609375 19.515625 32.621094 19.429688 32.75 19.210938 C 32.910156 18.929688 33.152344 18.765625 33.5 18.695312 C 33.800781 18.632812 39.003906 18.683594 39.703125 18.75 Z M 37.335938 30.53125 C 37.9375 30.824219 37.921875 31.65625 37.3125 31.910156 C 37.019531 32.035156 34.003906 32.023438 33.738281 31.898438 C 33.136719 31.609375 33.210938 30.660156 33.859375 30.472656 C 33.949219 30.445312 34.714844 30.417969 35.554688 30.417969 C 37.007812 30.410156 37.097656 30.417969 37.335938 30.53125 Z M 37.335938 30.53125 " fill-opacity="1" fill-rule="nonzero"/></g><g clip-path="url(#7fcf5c7a59)"><path fill="#000000" d="M 2.132812 32.574219 L 2.171875 34.972656 L 1.957031 34.972656 C 1.5 34.980469 1 35.351562 0.835938 35.8125 C 0.765625 36.003906 0.75 36.332031 0.75 37.363281 C 0.75 38.613281 0.753906 38.675781 0.886719 38.945312 C 1.152344 39.507812 1.492188 39.695312 2.355469 39.746094 C 2.917969 39.78125 2.929688 39.785156 3.09375 39.972656 C 3.449219 40.375 4.035156 40.539062 5.53125 40.664062 C 5.929688 40.691406 6.339844 40.71875 6.429688 40.71875 L 6.597656 40.71875 L 6.558594 40.308594 C 6.519531 39.824219 6.605469 39.003906 6.765625 38.386719 C 7.003906 37.449219 7.625 36.386719 8.363281 35.660156 C 8.914062 35.121094 9.335938 34.816406 9.964844 34.507812 C 12.144531 33.425781 14.59375 33.71875 16.527344 35.289062 C 17.492188 36.074219 18.25 37.300781 18.578125 38.617188 C 18.675781 39.011719 18.703125 39.296875 18.703125 39.972656 L 18.707031 40.832031 L 21.078125 40.832031 C 22.601562 40.832031 23.445312 40.808594 23.445312 40.777344 C 23.445312 40.675781 23.09375 39.621094 22.867188 39.058594 C 22.519531 38.183594 22.054688 37.289062 21.574219 36.5625 C 21.027344 35.742188 20.6875 35.3125 20.023438 34.640625 C 18.054688 32.636719 15.542969 31.324219 12.484375 30.699219 C 10.492188 30.292969 9.6875 30.238281 5.605469 30.203125 L 2.09375 30.175781 Z M 2.132812 32.574219 " fill-opacity="1" fill-rule="nonzero"/></g><g clip-path="url(#43295fdaa7)"><path fill="#000000" d="M 11.925781 35.429688 C 10.714844 35.632812 9.503906 36.421875 8.835938 37.449219 C 7.460938 39.558594 8.03125 42.332031 10.128906 43.757812 C 11.03125 44.371094 12.371094 44.636719 13.492188 44.433594 C 15.132812 44.132812 16.5625 42.804688 17.046875 41.132812 C 17.226562 40.507812 17.226562 39.414062 17.046875 38.789062 C 16.386719 36.496094 14.195312 35.058594 11.925781 35.429688 Z M 11.925781 35.429688 " fill-opacity="1" fill-rule="nonzero"/></g><g clip-path="url(#9ba54e69c2)"><path fill="#000000" d="M 45.886719 35.464844 C 44.308594 35.796875 42.96875 36.972656 42.449219 38.484375 C 41.601562 40.933594 42.953125 43.53125 45.488281 44.324219 C 46.097656 44.515625 47.148438 44.546875 47.808594 44.386719 C 48.734375 44.167969 49.6875 43.578125 50.285156 42.84375 C 50.652344 42.398438 51.042969 41.609375 51.191406 41.03125 C 51.429688 40.101562 51.328125 38.953125 50.917969 38.0625 C 50.550781 37.253906 49.820312 36.445312 49.058594 36 C 48.121094 35.449219 46.910156 35.246094 45.886719 35.464844 Z M 45.886719 35.464844 " fill-opacity="1" fill-rule="nonzero"/></g></svg>