<svg id="visual" viewBox="0 0 450 900" width="450" height="900" xmlns="http://www.w3.org/2000/svg" xmlns:xlink="http://www.w3.org/1999/xlink" version="1.1"><rect x="0" y="0" width="450" height="900" fill="#000000"></rect><path d="M0 686L15 684.3C30 682.7 60 679.3 90 681.5C120 683.7 150 691.3 180 670.2C210 649 240 599 270 577.8C300 556.7 330 564.3 360 569.8C390 575.3 420 578.7 435 580.3L450 582L450 901L435 901C420 901 390 901 360 901C330 901 300 901 270 901C240 901 210 901 180 901C150 901 120 901 90 901C60 901 30 901 15 901L0 901Z" fill="#71ecfb"></path><path d="M0 639L15 648.7C30 658.3 60 677.7 90 695.8C120 714 150 731 180 726C210 721 240 694 270 676.5C300 659 330 651 360 646.3C390 641.7 420 640.3 435 639.7L450 639L450 901L435 901C420 901 390 901 360 901C330 901 300 901 270 901C240 901 210 901 180 901C150 901 120 901 90 901C60 901 30 901 15 901L0 901Z" fill="#00bcff"></path><path d="M0 728L15 737.5C30 747 60 766 90 768C120 770 150 755 180 746.3C210 737.7 240 735.3 270 737.2C300 739 330 745 360 747.3C390 749.7 420 748.3 435 747.7L450 747L450 901L435 901C420 901 390 901 360 901C330 901 300 901 270 901C240 901 210 901 180 901C150 901 120 901 90 901C60 901 30 901 15 901L0 901Z" fill="#cf4bfe"></path></svg>