<?xml version="1.0" encoding="UTF-8"?>
  <svg id="a" xmlns="http://www.w3.org/2000/svg" x="0px" y="0px" width="140px" height="13px" viewBox="0 0 140 13">
    <path id="b" d="M116.78,2.96l1.34-2.57h-15.88V12.56h3.46v-4.3h8.33l1.34-2.57h-9.67V3.15h10.98l.11-.19Zm23.21,9.55l-7.65-6.15,7.48-5.91v-.05h-4.61l-5.25,4.31L124.85,.39h-5.04v.05l7.57,6.09-7.58,5.98v.05h4.61l5.34-4.38,5.22,4.38h5.04v-.05Z" style="fill:#e1cd33;"/>
    <path id="c" d="M12.97,4.87c0,1.04-.54,1.48-1.82,1.48H1.98V2.21H11.02c1.46,0,1.95,.39,1.95,1.54v1.12Zm1.98-.96c0-2.85-1.25-3.4-3.56-3.4H0V12.52H1.98v-4.48h7.47l3.31,4.48h2.17l-3.35-4.5c3.22-.14,3.38-1.66,3.38-4.1m4.44,1.32c.18-2.64,.91-3.14,4.01-3.14h2.87c3.19,0,4.08,1.18,4.08,2.37v.77h-10.95Zm0,1.59h12.91v-1.3c0-4.15-2.53-5.03-6.03-5.03h-3.14c-2.78,0-5.69,.48-5.69,4.69v2.53c0,4.28,2.92,4.76,5.47,4.76h9.19l-1.36-1.59h-6.65c-3.42,0-4.69-.68-4.69-3.32v-.73Zm30.03,2.25v-.04c0-3.16-2.02-3.46-4.97-3.46h-5.2c-2.06,0-2.38-.55-2.38-1.51v-.43c0-1.33,.62-1.61,3.44-1.61h7.64l1.36-1.6h-8.48c-4.86,0-5.93,1.05-5.93,2.96v.69c0,2.22,1.03,3.12,3.8,3.12h6.07c2.36,0,2.68,.62,2.68,1.74v.09c0,1.74-.94,1.86-3.89,1.86h-8.71l1.37,1.6h7.78c2.41,0,5.43-.11,5.43-3.39m16.68-7.05l1.36-1.6h-15.12l-1.36,1.6h7.24V12.62h1.99V2.02h5.89Zm15.79,5.65c0,2.76-1.63,3.29-3.94,3.29h-4.06c-2.32,0-3.94-.53-3.94-3.29v-2.37c0-2.76,1.63-3.3,3.94-3.3h4.06c2.32,0,3.94,.53,3.94,3.3v2.37Zm2,.12v-2.6c0-3.9-2.76-4.8-6.54-4.8h-2.86c-3.78,0-6.55,.91-6.55,4.8v2.6c0,3.9,2.76,4.8,6.55,4.8h2.86c3.78,0,6.54-.91,6.54-4.8M98.87,.42h-6.42c-1.35,0-2.85,.37-3.58,1.88h-.05V.61h-1.84V12.62h1.97V4.88c0-1.52,1.01-2.85,3.1-2.85h5.46l1.31-1.54,.05-.07Z" style="fill:#fff;"/>
  </svg>