<svg xmlns="http://www.w3.org/2000/svg" xmlns:xlink="http://www.w3.org/1999/xlink" width="460" zoomAndPan="magnify" viewBox="0 0 345 52.499999" height="70" preserveAspectRatio="xMidYMid meet" version="1.0"><defs><g/><clipPath id="879521ea0d"><path d="M 251 2 L 343.371094 2 L 343.371094 33 L 251 33 Z M 251 2 " clip-rule="nonzero"/></clipPath><clipPath id="1deda177f1"><path d="M 1.628906 2 L 243 2 L 243 33 L 1.628906 33 Z M 1.628906 2 " clip-rule="nonzero"/></clipPath></defs><g clip-path="url(#879521ea0d)"><path fill="#e1cd33" d="M 286.496094 8.976562 L 289.761719 2.660156 L 251.0625 2.660156 L 251.0625 32.566406 L 259.496094 32.566406 L 259.496094 22 L 279.792969 22 L 283.058594 15.683594 L 259.496094 15.683594 L 259.496094 9.441406 L 286.25 9.441406 L 286.519531 8.976562 Z M 343.054688 32.445312 L 324.410156 17.332031 L 342.640625 2.808594 L 342.640625 2.683594 L 331.40625 2.683594 L 318.613281 13.277344 L 306.160156 2.660156 L 293.878906 2.660156 L 293.878906 2.785156 L 312.324219 17.75 L 293.855469 32.445312 L 293.855469 32.566406 L 305.085938 32.566406 L 318.101562 21.804688 L 330.820312 32.566406 L 343.101562 32.566406 L 343.101562 32.445312 Z M 343.054688 32.445312 " fill-opacity="1" fill-rule="nonzero"/></g><g clip-path="url(#1deda177f1)"><path fill="#000000" d="M 33.527344 13.667969 C 33.527344 16.226562 32.210938 17.304688 29.09375 17.304688 L 6.746094 17.304688 L 6.746094 7.132812 L 28.777344 7.132812 C 32.332031 7.132812 33.527344 8.089844 33.527344 10.917969 Z M 38.351562 11.308594 C 38.351562 4.308594 35.304688 2.957031 29.675781 2.957031 L 1.921875 2.957031 L 1.921875 32.46875 L 6.746094 32.46875 L 6.746094 21.460938 L 24.949219 21.460938 L 33.015625 32.46875 L 38.304688 32.46875 L 30.140625 21.410156 C 37.988281 21.066406 38.378906 17.332031 38.378906 11.335938 M 49.195312 14.578125 C 49.636719 8.089844 51.414062 6.863281 58.96875 6.863281 L 65.960938 6.863281 C 73.734375 6.863281 75.902344 9.761719 75.902344 12.6875 L 75.902344 14.578125 Z M 49.195312 18.484375 L 80.65625 18.484375 L 80.65625 15.292969 C 80.65625 5.09375 74.492188 2.929688 65.960938 2.929688 L 58.308594 2.929688 C 51.535156 2.929688 44.445312 4.109375 44.445312 14.457031 L 44.445312 20.671875 C 44.445312 31.191406 51.558594 32.371094 57.773438 32.371094 L 80.167969 32.371094 L 76.855469 28.460938 L 60.648438 28.460938 C 52.316406 28.460938 49.222656 26.792969 49.222656 20.304688 L 49.222656 18.511719 Z M 122.375 24.015625 L 122.375 23.917969 C 122.375 16.152344 117.453125 15.414062 110.261719 15.414062 L 97.59375 15.414062 C 92.570312 15.414062 91.792969 14.0625 91.792969 11.703125 L 91.792969 10.648438 C 91.792969 7.378906 93.304688 6.691406 100.175781 6.691406 L 118.792969 6.691406 L 122.105469 2.757812 L 101.441406 2.757812 C 89.597656 2.757812 86.992188 5.339844 86.992188 10.03125 L 86.992188 11.726562 C 86.992188 17.183594 89.5 19.394531 96.25 19.394531 L 111.042969 19.394531 C 116.792969 19.394531 117.574219 20.917969 117.574219 23.671875 L 117.574219 23.890625 C 117.574219 28.167969 115.285156 28.460938 108.09375 28.460938 L 86.871094 28.460938 L 90.207031 32.394531 L 109.167969 32.394531 C 115.039062 32.394531 122.398438 32.125 122.398438 24.0625 M 163.046875 6.738281 L 166.359375 2.808594 L 129.515625 2.808594 L 126.199219 6.738281 L 143.84375 6.738281 L 143.84375 32.714844 L 148.691406 32.714844 L 148.691406 6.667969 L 163.046875 6.667969 Z M 201.523438 20.625 C 201.523438 27.40625 197.550781 28.707031 191.921875 28.707031 L 182.027344 28.707031 C 176.375 28.707031 172.425781 27.40625 172.425781 20.625 L 172.425781 14.800781 C 172.425781 8.015625 176.398438 6.691406 182.027344 6.691406 L 191.921875 6.691406 C 197.574219 6.691406 201.523438 7.992188 201.523438 14.800781 Z M 206.394531 20.917969 L 206.394531 14.53125 C 206.394531 4.945312 199.671875 2.734375 190.460938 2.734375 L 183.488281 2.734375 C 174.277344 2.734375 167.527344 4.96875 167.527344 14.53125 L 167.527344 20.917969 C 167.527344 30.503906 174.253906 32.714844 183.488281 32.714844 L 190.460938 32.714844 C 199.671875 32.714844 206.394531 30.476562 206.394531 20.917969 M 242.851562 2.734375 L 227.207031 2.734375 C 223.917969 2.734375 220.261719 3.644531 218.484375 7.355469 L 218.359375 7.355469 L 218.359375 3.199219 L 213.878906 3.199219 L 213.878906 32.714844 L 218.679688 32.714844 L 218.679688 13.695312 C 218.679688 9.957031 221.140625 6.691406 226.230469 6.691406 L 239.539062 6.691406 L 242.730469 2.90625 Z M 242.851562 2.734375 " fill-opacity="1" fill-rule="nonzero"/></g><g fill="#000000" fill-opacity="1"><g transform="translate(149.379305, 49.985261)"><g><path d="M 0.171875 0 C 0.0546875 0 0 -0.0546875 0 -0.171875 L 0 -8.25 C 0 -8.351562 0.0546875 -8.40625 0.171875 -8.40625 L 10.0625 -8.40625 C 10.550781 -8.40625 10.957031 -8.242188 11.28125 -7.921875 C 11.613281 -7.597656 11.78125 -7.191406 11.78125 -6.703125 L 11.78125 -5.078125 C 11.78125 -4.765625 11.707031 -4.472656 11.5625 -4.203125 C 11.707031 -3.929688 11.78125 -3.640625 11.78125 -3.328125 L 11.78125 -1.71875 C 11.78125 -1.21875 11.613281 -0.804688 11.28125 -0.484375 C 10.957031 -0.160156 10.550781 0 10.0625 0 Z M 1.6875 -1.6875 L 9.765625 -1.6875 C 9.847656 -1.6875 9.921875 -1.71875 9.984375 -1.78125 C 10.054688 -1.851562 10.09375 -1.929688 10.09375 -2.015625 L 10.09375 -3.03125 C 10.09375 -3.113281 10.054688 -3.1875 9.984375 -3.25 C 9.921875 -3.320312 9.847656 -3.359375 9.765625 -3.359375 L 1.6875 -3.359375 Z M 1.6875 -5.046875 L 9.765625 -5.046875 C 9.847656 -5.046875 9.921875 -5.078125 9.984375 -5.140625 C 10.054688 -5.210938 10.09375 -5.296875 10.09375 -5.390625 L 10.09375 -6.390625 C 10.09375 -6.484375 10.054688 -6.5625 9.984375 -6.625 C 9.921875 -6.695312 9.847656 -6.734375 9.765625 -6.734375 L 1.6875 -6.734375 Z M 1.6875 -5.046875 "/></g></g></g><g fill="#000000" fill-opacity="1"><g transform="translate(162.844788, 49.985261)"><g><path d="M 1.71875 0 C 1.21875 0 0.804688 -0.160156 0.484375 -0.484375 C 0.160156 -0.804688 0 -1.21875 0 -1.71875 L 0 -6.703125 C 0 -7.191406 0.160156 -7.597656 0.484375 -7.921875 C 0.804688 -8.242188 1.21875 -8.40625 1.71875 -8.40625 L 10.0625 -8.40625 C 10.550781 -8.40625 10.957031 -8.242188 11.28125 -7.921875 C 11.613281 -7.597656 11.78125 -7.191406 11.78125 -6.703125 L 11.78125 -1.71875 C 11.78125 -1.21875 11.613281 -0.804688 11.28125 -0.484375 C 10.957031 -0.160156 10.550781 0 10.0625 0 Z M 2.015625 -1.6875 L 9.765625 -1.6875 C 9.847656 -1.6875 9.921875 -1.71875 9.984375 -1.78125 C 10.054688 -1.851562 10.09375 -1.929688 10.09375 -2.015625 L 10.09375 -6.390625 C 10.09375 -6.484375 10.054688 -6.5625 9.984375 -6.625 C 9.921875 -6.695312 9.847656 -6.734375 9.765625 -6.734375 L 2.015625 -6.734375 C 1.929688 -6.734375 1.851562 -6.695312 1.78125 -6.625 C 1.71875 -6.5625 1.6875 -6.484375 1.6875 -6.390625 L 1.6875 -2.015625 C 1.6875 -1.929688 1.71875 -1.851562 1.78125 -1.78125 C 1.851562 -1.71875 1.929688 -1.6875 2.015625 -1.6875 Z M 2.015625 -1.6875 "/></g></g></g><g fill="#000000" fill-opacity="1"><g transform="translate(176.310271, 49.985261)"><g><path d="M 1.71875 0 C 1.21875 0 0.804688 -0.160156 0.484375 -0.484375 C 0.160156 -0.804688 0 -1.21875 0 -1.71875 L 0 -8.25 C 0 -8.351562 0.0546875 -8.40625 0.171875 -8.40625 L 1.515625 -8.40625 C 1.628906 -8.40625 1.6875 -8.351562 1.6875 -8.25 L 1.6875 -2.015625 C 1.6875 -1.929688 1.71875 -1.851562 1.78125 -1.78125 C 1.851562 -1.71875 1.929688 -1.6875 2.015625 -1.6875 L 9.765625 -1.6875 C 9.847656 -1.6875 9.921875 -1.71875 9.984375 -1.78125 C 10.054688 -1.851562 10.09375 -1.929688 10.09375 -2.015625 L 10.09375 -8.25 C 10.09375 -8.351562 10.148438 -8.40625 10.265625 -8.40625 L 11.609375 -8.40625 C 11.722656 -8.40625 11.78125 -8.351562 11.78125 -8.25 L 11.78125 -1.71875 C 11.78125 -1.21875 11.613281 -0.804688 11.28125 -0.484375 C 10.957031 -0.160156 10.550781 0 10.0625 0 Z M 1.71875 0 "/></g></g></g><g fill="#000000" fill-opacity="1"><g transform="translate(189.775755, 49.985261)"><g><path d="M 0.171875 0 C 0.0546875 0 0 -0.0546875 0 -0.171875 L 0 -8.25 C 0 -8.351562 0.0546875 -8.40625 0.171875 -8.40625 L 10.0625 -8.40625 C 10.550781 -8.40625 10.957031 -8.242188 11.28125 -7.921875 C 11.613281 -7.597656 11.78125 -7.191406 11.78125 -6.703125 L 11.78125 -5.078125 C 11.78125 -4.585938 11.613281 -4.175781 11.28125 -3.84375 C 10.957031 -3.519531 10.550781 -3.359375 10.0625 -3.359375 L 9.890625 -3.359375 L 11.078125 0 L 9.21875 0 L 8.046875 -3.359375 L 1.6875 -3.359375 L 1.6875 -0.171875 C 1.6875 -0.0546875 1.628906 0 1.515625 0 Z M 1.6875 -5.046875 L 9.765625 -5.046875 C 9.847656 -5.046875 9.921875 -5.078125 9.984375 -5.140625 C 10.054688 -5.210938 10.09375 -5.296875 10.09375 -5.390625 L 10.09375 -6.390625 C 10.09375 -6.484375 10.054688 -6.5625 9.984375 -6.625 C 9.921875 -6.695312 9.847656 -6.734375 9.765625 -6.734375 L 1.6875 -6.734375 Z M 1.6875 -5.046875 "/></g></g></g><g fill="#000000" fill-opacity="1"><g transform="translate(203.241238, 49.985261)"><g><path d="M 1.71875 0 C 1.21875 0 0.804688 -0.160156 0.484375 -0.484375 C 0.160156 -0.804688 0 -1.21875 0 -1.71875 L 0 -6.703125 C 0 -7.191406 0.160156 -7.597656 0.484375 -7.921875 C 0.804688 -8.242188 1.21875 -8.40625 1.71875 -8.40625 L 11.609375 -8.40625 C 11.722656 -8.40625 11.78125 -8.351562 11.78125 -8.25 L 11.78125 -6.90625 C 11.78125 -6.789062 11.722656 -6.734375 11.609375 -6.734375 L 2.015625 -6.734375 C 1.929688 -6.734375 1.851562 -6.695312 1.78125 -6.625 C 1.71875 -6.5625 1.6875 -6.484375 1.6875 -6.390625 L 1.6875 -2.015625 C 1.6875 -1.929688 1.71875 -1.851562 1.78125 -1.78125 C 1.851562 -1.71875 1.929688 -1.6875 2.015625 -1.6875 L 9.765625 -1.6875 C 9.847656 -1.6875 9.921875 -1.71875 9.984375 -1.78125 C 10.054688 -1.851562 10.09375 -1.929688 10.09375 -2.015625 L 10.09375 -3.359375 L 3.53125 -3.359375 C 3.414062 -3.359375 3.359375 -3.414062 3.359375 -3.53125 L 3.359375 -4.875 C 3.359375 -4.988281 3.414062 -5.046875 3.53125 -5.046875 L 11.609375 -5.046875 C 11.722656 -5.046875 11.78125 -4.988281 11.78125 -4.875 L 11.78125 -1.71875 C 11.78125 -1.21875 11.613281 -0.804688 11.28125 -0.484375 C 10.957031 -0.160156 10.550781 0 10.0625 0 Z M 1.71875 0 "/></g></g></g><g fill="#000000" fill-opacity="1"><g transform="translate(216.706721, 49.985261)"><g><path d="M 0.171875 -3.359375 C 0.0546875 -3.359375 0 -3.414062 0 -3.53125 L 0 -4.875 C 0 -4.988281 0.0546875 -5.046875 0.171875 -5.046875 L 8.25 -5.046875 C 8.351562 -5.046875 8.40625 -4.988281 8.40625 -4.875 L 8.40625 -3.53125 C 8.40625 -3.414062 8.351562 -3.359375 8.25 -3.359375 Z M 0.171875 -3.359375 "/></g></g></g><g fill="#000000" fill-opacity="1"><g transform="translate(226.805828, 49.985261)"><g><path d="M 1.71875 0 C 1.21875 0 0.804688 -0.160156 0.484375 -0.484375 C 0.160156 -0.804688 0 -1.21875 0 -1.71875 L 0 -6.703125 C 0 -7.191406 0.160156 -7.597656 0.484375 -7.921875 C 0.804688 -8.242188 1.21875 -8.40625 1.71875 -8.40625 L 11.609375 -8.40625 C 11.722656 -8.40625 11.78125 -8.351562 11.78125 -8.25 L 11.78125 -6.90625 C 11.78125 -6.789062 11.722656 -6.734375 11.609375 -6.734375 L 2.015625 -6.734375 C 1.929688 -6.734375 1.851562 -6.695312 1.78125 -6.625 C 1.71875 -6.5625 1.6875 -6.484375 1.6875 -6.390625 L 1.6875 -5.046875 L 10.796875 -5.046875 C 10.929688 -5.046875 11 -4.988281 11 -4.875 L 11 -3.53125 C 11 -3.414062 10.929688 -3.359375 10.796875 -3.359375 L 1.6875 -3.359375 L 1.6875 -2.015625 C 1.6875 -1.929688 1.71875 -1.851562 1.78125 -1.78125 C 1.851562 -1.71875 1.929688 -1.6875 2.015625 -1.6875 L 11.609375 -1.6875 C 11.722656 -1.6875 11.78125 -1.628906 11.78125 -1.515625 L 11.78125 -0.171875 C 11.78125 -0.0546875 11.722656 0 11.609375 0 Z M 1.71875 0 "/></g></g></g><g fill="#000000" fill-opacity="1"><g transform="translate(240.271311, 49.985261)"><g><path d="M 11.609375 0 L 10.09375 0 L 1.6875 -6.21875 L 1.6875 -0.171875 C 1.6875 -0.0546875 1.628906 0 1.515625 0 L 0.171875 0 C 0.0546875 0 0 -0.0546875 0 -0.171875 L 0 -8.25 C 0 -8.351562 0.0546875 -8.40625 0.171875 -8.40625 L 1.6875 -8.40625 L 10.09375 -2.1875 L 10.09375 -8.25 C 10.09375 -8.351562 10.148438 -8.40625 10.265625 -8.40625 L 11.609375 -8.40625 C 11.722656 -8.40625 11.78125 -8.351562 11.78125 -8.25 L 11.78125 -0.171875 C 11.78125 -0.0546875 11.722656 0 11.609375 0 Z M 11.609375 0 "/></g></g></g><g fill="#000000" fill-opacity="1"><g transform="translate(253.736794, 49.985261)"><g><path d="M 0.171875 -3.359375 C 0.0546875 -3.359375 0 -3.414062 0 -3.53125 L 0 -4.875 C 0 -4.988281 0.0546875 -5.046875 0.171875 -5.046875 L 8.25 -5.046875 C 8.351562 -5.046875 8.40625 -4.988281 8.40625 -4.875 L 8.40625 -3.53125 C 8.40625 -3.414062 8.351562 -3.359375 8.25 -3.359375 Z M 0.171875 -3.359375 "/></g></g></g><g fill="#000000" fill-opacity="1"><g transform="translate(263.835901, 49.985261)"><g><path d="M 0.171875 0 C 0.0546875 0 0 -0.0546875 0 -0.171875 L 0 -8.25 C 0 -8.351562 0.0546875 -8.40625 0.171875 -8.40625 L 10.0625 -8.40625 C 10.550781 -8.40625 10.957031 -8.242188 11.28125 -7.921875 C 11.613281 -7.597656 11.78125 -7.191406 11.78125 -6.703125 L 11.78125 -5.078125 C 11.78125 -4.765625 11.707031 -4.472656 11.5625 -4.203125 C 11.707031 -3.929688 11.78125 -3.640625 11.78125 -3.328125 L 11.78125 -1.71875 C 11.78125 -1.21875 11.613281 -0.804688 11.28125 -0.484375 C 10.957031 -0.160156 10.550781 0 10.0625 0 Z M 1.6875 -1.6875 L 9.765625 -1.6875 C 9.847656 -1.6875 9.921875 -1.71875 9.984375 -1.78125 C 10.054688 -1.851562 10.09375 -1.929688 10.09375 -2.015625 L 10.09375 -3.03125 C 10.09375 -3.113281 10.054688 -3.1875 9.984375 -3.25 C 9.921875 -3.320312 9.847656 -3.359375 9.765625 -3.359375 L 1.6875 -3.359375 Z M 1.6875 -5.046875 L 9.765625 -5.046875 C 9.847656 -5.046875 9.921875 -5.078125 9.984375 -5.140625 C 10.054688 -5.210938 10.09375 -5.296875 10.09375 -5.390625 L 10.09375 -6.390625 C 10.09375 -6.484375 10.054688 -6.5625 9.984375 -6.625 C 9.921875 -6.695312 9.847656 -6.734375 9.765625 -6.734375 L 1.6875 -6.734375 Z M 1.6875 -5.046875 "/></g></g></g><g fill="#000000" fill-opacity="1"><g transform="translate(277.301384, 49.985261)"><g><path d="M 0.171875 0 C 0.0546875 0 0 -0.0546875 0 -0.171875 L 0 -8.25 C 0 -8.351562 0.0546875 -8.40625 0.171875 -8.40625 L 10.0625 -8.40625 C 10.550781 -8.40625 10.957031 -8.242188 11.28125 -7.921875 C 11.613281 -7.597656 11.78125 -7.191406 11.78125 -6.703125 L 11.78125 -5.078125 C 11.78125 -4.585938 11.613281 -4.175781 11.28125 -3.84375 C 10.957031 -3.519531 10.550781 -3.359375 10.0625 -3.359375 L 9.890625 -3.359375 L 11.078125 0 L 9.21875 0 L 8.046875 -3.359375 L 1.6875 -3.359375 L 1.6875 -0.171875 C 1.6875 -0.0546875 1.628906 0 1.515625 0 Z M 1.6875 -5.046875 L 9.765625 -5.046875 C 9.847656 -5.046875 9.921875 -5.078125 9.984375 -5.140625 C 10.054688 -5.210938 10.09375 -5.296875 10.09375 -5.390625 L 10.09375 -6.390625 C 10.09375 -6.484375 10.054688 -6.5625 9.984375 -6.625 C 9.921875 -6.695312 9.847656 -6.734375 9.765625 -6.734375 L 1.6875 -6.734375 Z M 1.6875 -5.046875 "/></g></g></g><g fill="#000000" fill-opacity="1"><g transform="translate(290.766867, 49.985261)"><g><path d="M 1.71875 0 C 1.21875 0 0.804688 -0.160156 0.484375 -0.484375 C 0.160156 -0.804688 0 -1.21875 0 -1.71875 L 0 -6.703125 C 0 -7.191406 0.160156 -7.597656 0.484375 -7.921875 C 0.804688 -8.242188 1.21875 -8.40625 1.71875 -8.40625 L 11.609375 -8.40625 C 11.722656 -8.40625 11.78125 -8.351562 11.78125 -8.25 L 11.78125 -6.90625 C 11.78125 -6.789062 11.722656 -6.734375 11.609375 -6.734375 L 2.015625 -6.734375 C 1.929688 -6.734375 1.851562 -6.695312 1.78125 -6.625 C 1.71875 -6.5625 1.6875 -6.484375 1.6875 -6.390625 L 1.6875 -5.046875 L 10.796875 -5.046875 C 10.929688 -5.046875 11 -4.988281 11 -4.875 L 11 -3.53125 C 11 -3.414062 10.929688 -3.359375 10.796875 -3.359375 L 1.6875 -3.359375 L 1.6875 -2.015625 C 1.6875 -1.929688 1.71875 -1.851562 1.78125 -1.78125 C 1.851562 -1.71875 1.929688 -1.6875 2.015625 -1.6875 L 11.609375 -1.6875 C 11.722656 -1.6875 11.78125 -1.628906 11.78125 -1.515625 L 11.78125 -0.171875 C 11.78125 -0.0546875 11.722656 0 11.609375 0 Z M 1.71875 0 "/></g></g></g><g fill="#000000" fill-opacity="1"><g transform="translate(304.23235, 49.985261)"><g><path d="M 0.171875 0 C 0.0546875 0 0 -0.0546875 0 -0.171875 L 0 -1.515625 C 0 -1.628906 0.0546875 -1.6875 0.171875 -1.6875 L 9.765625 -1.6875 C 9.847656 -1.6875 9.921875 -1.71875 9.984375 -1.78125 C 10.054688 -1.851562 10.09375 -1.929688 10.09375 -2.015625 L 10.09375 -3.03125 C 10.09375 -3.113281 10.054688 -3.1875 9.984375 -3.25 C 9.921875 -3.320312 9.847656 -3.359375 9.765625 -3.359375 L 1.71875 -3.359375 C 1.21875 -3.359375 0.804688 -3.519531 0.484375 -3.84375 C 0.160156 -4.175781 0 -4.585938 0 -5.078125 L 0 -6.703125 C 0 -7.191406 0.160156 -7.597656 0.484375 -7.921875 C 0.804688 -8.242188 1.21875 -8.40625 1.71875 -8.40625 L 11.609375 -8.40625 C 11.722656 -8.40625 11.78125 -8.351562 11.78125 -8.25 L 11.78125 -6.90625 C 11.78125 -6.789062 11.722656 -6.734375 11.609375 -6.734375 L 2.015625 -6.734375 C 1.929688 -6.734375 1.851562 -6.695312 1.78125 -6.625 C 1.71875 -6.5625 1.6875 -6.484375 1.6875 -6.390625 L 1.6875 -5.390625 C 1.6875 -5.296875 1.71875 -5.210938 1.78125 -5.140625 C 1.851562 -5.078125 1.929688 -5.046875 2.015625 -5.046875 L 10.0625 -5.046875 C 10.550781 -5.046875 10.957031 -4.882812 11.28125 -4.5625 C 11.613281 -4.238281 11.78125 -3.828125 11.78125 -3.328125 L 11.78125 -1.71875 C 11.78125 -1.21875 11.613281 -0.804688 11.28125 -0.484375 C 10.957031 -0.160156 10.550781 0 10.0625 0 Z M 0.171875 0 "/></g></g></g><g fill="#000000" fill-opacity="1"><g transform="translate(317.697833, 49.985261)"><g><path d="M 0.171875 0 C 0.0546875 0 0 -0.0546875 0 -0.171875 L 0 -1.515625 C 0 -1.628906 0.0546875 -1.6875 0.171875 -1.6875 L 9.765625 -1.6875 C 9.847656 -1.6875 9.921875 -1.71875 9.984375 -1.78125 C 10.054688 -1.851562 10.09375 -1.929688 10.09375 -2.015625 L 10.09375 -3.03125 C 10.09375 -3.113281 10.054688 -3.1875 9.984375 -3.25 C 9.921875 -3.320312 9.847656 -3.359375 9.765625 -3.359375 L 1.71875 -3.359375 C 1.21875 -3.359375 0.804688 -3.519531 0.484375 -3.84375 C 0.160156 -4.175781 0 -4.585938 0 -5.078125 L 0 -6.703125 C 0 -7.191406 0.160156 -7.597656 0.484375 -7.921875 C 0.804688 -8.242188 1.21875 -8.40625 1.71875 -8.40625 L 11.609375 -8.40625 C 11.722656 -8.40625 11.78125 -8.351562 11.78125 -8.25 L 11.78125 -6.90625 C 11.78125 -6.789062 11.722656 -6.734375 11.609375 -6.734375 L 2.015625 -6.734375 C 1.929688 -6.734375 1.851562 -6.695312 1.78125 -6.625 C 1.71875 -6.5625 1.6875 -6.484375 1.6875 -6.390625 L 1.6875 -5.390625 C 1.6875 -5.296875 1.71875 -5.210938 1.78125 -5.140625 C 1.851562 -5.078125 1.929688 -5.046875 2.015625 -5.046875 L 10.0625 -5.046875 C 10.550781 -5.046875 10.957031 -4.882812 11.28125 -4.5625 C 11.613281 -4.238281 11.78125 -3.828125 11.78125 -3.328125 L 11.78125 -1.71875 C 11.78125 -1.21875 11.613281 -0.804688 11.28125 -0.484375 C 10.957031 -0.160156 10.550781 0 10.0625 0 Z M 0.171875 0 "/></g></g></g><g fill="#000000" fill-opacity="1"><g transform="translate(331.163317, 49.985261)"><g><path d="M 1.71875 0 C 1.21875 0 0.804688 -0.160156 0.484375 -0.484375 C 0.160156 -0.804688 0 -1.21875 0 -1.71875 L 0 -6.703125 C 0 -7.191406 0.160156 -7.597656 0.484375 -7.921875 C 0.804688 -8.242188 1.21875 -8.40625 1.71875 -8.40625 L 11.609375 -8.40625 C 11.722656 -8.40625 11.78125 -8.351562 11.78125 -8.25 L 11.78125 -6.90625 C 11.78125 -6.789062 11.722656 -6.734375 11.609375 -6.734375 L 2.015625 -6.734375 C 1.929688 -6.734375 1.851562 -6.695312 1.78125 -6.625 C 1.71875 -6.5625 1.6875 -6.484375 1.6875 -6.390625 L 1.6875 -5.046875 L 10.796875 -5.046875 C 10.929688 -5.046875 11 -4.988281 11 -4.875 L 11 -3.53125 C 11 -3.414062 10.929688 -3.359375 10.796875 -3.359375 L 1.6875 -3.359375 L 1.6875 -2.015625 C 1.6875 -1.929688 1.71875 -1.851562 1.78125 -1.78125 C 1.851562 -1.71875 1.929688 -1.6875 2.015625 -1.6875 L 11.609375 -1.6875 C 11.722656 -1.6875 11.78125 -1.628906 11.78125 -1.515625 L 11.78125 -0.171875 C 11.78125 -0.0546875 11.722656 0 11.609375 0 Z M 1.71875 0 "/></g></g></g></svg>